<svg width="269" height="167" viewBox="0 0 269 167" fill="none" xmlns="http://www.w3.org/2000/svg">
<g clip-path="url(#clip0_111_2)">
<path d="M0 36.557L12.026 56.858L16.827 52.279L3.738 32.76L0 36.557Z" fill="url(#paint0_linear_111_2)"/>
<path d="M178.558 20.602L178.093 23.278L183.845 21.422L183.128 18.144L178.558 20.602Z" fill="#0071B9"/>
<path d="M145.044 2.326L126.536 23.55L131.922 22.001L149.543 0L145.044 2.326Z" fill="url(#paint1_linear_111_2)"/>
<path d="M244.056 31.345L248.599 28.924L247.301 40.3L244.056 31.345Z" fill="#1D2C5E"/>
<path d="M215.82 38.64L219.858 39.467L225.012 36.965L220.539 35.296L215.82 38.64Z" fill="#1D2C5E"/>
<path d="M76.5979 26.561L77.2439 39.744L82.8799 37.467L81.1929 24.096L76.5979 26.561Z" fill="url(#paint2_linear_111_2)"/>
<path d="M220.19 22.627L215.654 25.075L215.82 38.64L220.386 36.3L221.819 29.734L220.19 22.627Z" fill="url(#paint3_linear_111_2)"/>
<path d="M219.567 39.505L214.572 83.875L222.557 82.3L224.121 37.112L219.567 39.505Z" fill="#312370"/>
<path d="M229.345 86.002L229.487 92.019L244.815 96.904L249.377 94.486L234.337 82.834L219.102 81.496L214.572 83.875L229.345 86.002Z" fill="#21386E"/>
<path d="M172.483 75.419L176.25 73.39L178.651 77.826L182.201 75.875L182.908 81.723L205.192 85.675L209.645 83.226L178.917 64.503L157.119 68.239L152.867 72.28L172.483 75.419Z" fill="#21386E"/>
<path d="M165.387 20.828L160.926 23.283L152.867 72.28L157.381 69.935L165.117 42.424L165.387 20.828Z" fill="url(#paint4_linear_111_2)"/>
<path d="M129.789 27.395L126.235 29.288L126.534 30.473L134.992 25.1L131.296 21.134L126.536 23.55L129.789 27.395Z" fill="#1D2C5E"/>
<path d="M139.506 85.272L103.166 67.271L107.728 63.822L144.028 82.83L139.506 85.272Z" fill="#21386E"/>
<path d="M106.581 18.277L101.074 28.72L106.893 26.958L111.092 15.83L106.581 18.277Z" fill="#1D2C5E"/>
<path d="M56.6331 61.419L51.9871 64.608C51.9871 64.608 52.9731 69.792 54.2441 73.398C55.5221 77.017 58.5641 79.924 58.5641 79.924C60.5181 81.834 62.9131 83.224 65.5851 84.004C70.7241 85.483 76.5241 84.519 81.5031 81.344C82.8051 80.52 84.5721 79.201 85.6581 78.16C80.7641 81.13 56.6331 61.419 56.6331 61.419Z" fill="url(#paint5_linear_111_2)"/>
<path d="M81.4959 38.669L85.7359 85.445L103.06 82.882L107.695 80.453L86.1959 35.865L81.7729 37.355L77.2439 39.744L81.4959 38.669Z" fill="#1D2C5E"/>
<path d="M16.5499 54.916L35.9059 98.814L54.2949 92.882L58.7849 89.864L20.6169 49.929L15.8409 52.791L12.0259 56.858L16.5499 54.916Z" fill="url(#paint6_linear_111_2)"/>
<path d="M208.381 75.627L208.641 77.782C210.225 77.604 211.889 77.399 213.313 76.892C214.973 76.324 218.579 74.718 219.95 73.535C219.436 73.722 210.987 75.912 208.381 75.627Z" fill="#1D2C5E"/>
<path d="M143.322 64.418L144.012 67.888C147.734 67.334 150.929 65.957 154.07 64.069C156.041 62.895 158.205 61.124 158.888 60.652C158.406 60.96 143.322 64.418 143.322 64.418Z" fill="#1D2C5E"/>
<path d="M40.938 94.652L39.501 91.459L21.149 50.5L20.772 49.66L19.938 50.045L19.381 50.301L16.114 51.905C15.632 51.097 14.832 49.743 14.276 48.804L6.88903 36.32L4.95703 33.061L8.15303 31.036C11.176 29.108 14.59 27.327 18.304 25.741C25.699 22.591 33.247 20.925 40.13 20.925C42.394 20.925 44.585 21.108 46.643 21.466C50.074 21.857 53.247 22.983 55.868 24.729C59.774 26.913 62.849 30.301 64.586 34.309C66.012 37.603 66.29 41.461 65.384 45.463L64.852 47.814L66.805 46.398C68.121 45.443 69.551 44.627 71.055 43.972C73.655 42.873 76.345 42.312 79.04 42.312C81.591 42.312 84.003 42.817 86.21 43.81L87.633 44.448L87.49 42.895L86.871 36.184L86.771 35.12L85.735 35.389L82.626 36.195L82.081 24.768L104.855 17.492L104.671 26.373L106.386 26.813L111.36 17.281L126.257 30.493L126.878 31.046L127.484 30.476C129.525 28.558 131.944 27.019 134.673 25.902L135.813 25.436L135.032 24.483L132.346 21.209L149.449 1.495L158.406 14.86L144.695 22.23L141.65 23.868L145.107 23.941C151.607 24.078 157.363 26.828 161.312 31.683L162.74 33.444L163.66 34.575L162.132 36.197L161.113 37.279L157.687 40.933L157.05 41.612L157.739 42.234L160.95 45.125L162.192 46.242L162.458 44.594L163.69 36.967L164.005 35.009L164.015 35.02L164.339 33.02L166.178 21.76H182.596H183.366L183.496 21.001L183.817 19.073H198.602L202.184 41.694L202.417 43.159L203.617 42.288C205.068 41.234 206.671 40.367 208.383 39.712C210.662 38.852 213.008 38.413 215.35 38.413C218.138 38.413 220.845 39.057 223.186 40.274C223.248 40.319 223.336 40.377 223.456 40.425L224.567 40.871L224.698 39.679L224.966 37.214L225.054 36.406L224.259 36.229L221.261 35.559L221.115 23.767L243.972 28.798L245.689 37.283L247.464 37.318L249.235 30.016L268.295 34.651L248.817 93.354L234.879 88.977L234.78 83.57L234.766 82.795L233.997 82.687L220.089 80.724L220.876 73.655L221.063 71.973L219.558 72.744C218.845 73.107 218.155 73.412 217.503 73.652C215.229 74.512 212.9 74.947 210.581 74.947C209.91 74.947 209.236 74.91 208.58 74.836L207.392 74.703L207.578 75.883L208.557 82.1L188.266 78.521L187.203 69.295L186.861 66.338L185.494 68.981L183.158 73.486L178.857 65.546L177.564 63.161L177.156 65.841L176.219 71.987L158.435 69.188L159.814 60.753L160.129 58.819L158.448 59.824C155.537 61.569 152.194 62.882 148.231 63.839C146.846 64.177 145.399 64.411 143.926 64.533L143.092 64.603V65.44V81.358L108.069 64.049L106.753 63.4L106.754 64.867L106.778 79.671L91.119 81.978L90.461 74.869L90.283 72.967L88.918 74.305C86.849 76.33 84.518 77.9 81.991 78.972C79.406 80.071 76.739 80.627 74.066 80.627C71.397 80.627 68.889 80.069 66.611 78.978C62.391 76.948 59.347 73.265 58.041 68.618C57.419 66.435 57.25 64.13 57.539 61.764L57.848 59.244L56.01 60.994C54.714 62.224 53.318 63.399 51.858 64.478L51.363 64.843L51.519 65.438L56.794 85.686L57.726 89.279L54.194 90.402L44.262 93.582L40.938 94.652ZM45.396 40.296C44.884 40.296 44.355 40.343 43.822 40.439L43.146 40.569L42.148 40.761L42.449 41.733L42.645 42.365L45.485 51.658L45.769 52.551L46.191 53.891L47.241 52.957L47.938 52.336C50.691 49.862 51.656 47.35 51.075 44.182C50.709 42.281 49.237 41.334 48.391 40.938C47.507 40.512 46.495 40.296 45.396 40.296ZM121.531 40.601L119.756 42.329L115.081 46.872L114.063 47.861L115.388 48.373L120.402 50.308L121.942 50.901L121.624 49.283C121.21 47.193 121.102 45.101 121.296 43.066L121.531 40.601ZM141.947 35.434C140.008 35.434 138.132 36.268 136.799 37.72C134.777 39.928 134.384 43.185 135.822 45.823L136.203 46.538L136.816 47.681L137.679 46.715L138.234 46.1L145.092 38.27L145.631 37.65L146.496 36.656L145.262 36.199L144.493 35.915C143.686 35.599 142.822 35.434 141.947 35.434Z" fill="#FFCB05"/>
<path d="M152.438 47.032C152.372 47.09 152.311 47.164 152.259 47.24C152.328 47.177 152.395 47.122 152.466 47.064L152.438 47.032Z" fill="#7D7F68"/>
<path d="M158.351 41.555L161.776 37.901L160.604 39.145L160.638 38.988L159.602 40.081L156.18 43.724L159.386 46.608L159.967 43.016L161.563 44.445L158.351 41.555Z" fill="#7D7F68"/>
<path d="M158.351 41.555L161.563 44.445L162.793 36.819L161.776 37.901L158.351 41.555Z" fill="#7D7F68"/>
<path d="M134.677 50.694C134.951 50.971 134.698 50.772 135.005 50.982L137.1 49.505C136.789 49.285 136.481 49.049 136.198 48.785C133.158 46.015 133.948 39.785 135.92 36.375C130.729 40.563 130.999 47.01 134.677 50.694Z" fill="#C7A008"/>
<path d="M159.967 54.182C156.507 57.044 152.563 58.91 147.352 60.169C146.213 60.43 145.097 60.62 144.005 60.716C135.734 61.529 128.795 57.731 126.162 51.571C125.834 50.825 125.581 50.07 125.39 49.264C124.172 44.076 125.212 39.44 127.775 35.806C128.029 35.454 128.296 35.117 128.576 34.774C128.445 34.886 128.311 34.982 128.202 35.087C127.217 35.964 126.345 36.925 125.604 37.975C123.038 41.609 121.998 46.248 123.227 51.428C123.415 52.234 123.664 53 123.985 53.729C126.619 59.903 133.56 63.699 141.824 62.892C142.925 62.786 144.037 62.604 145.177 62.329C150.394 61.07 154.335 59.212 157.795 56.35C158.64 55.655 159.455 54.897 160.246 54.068L160.173 53.998C160.094 54.066 160.035 54.125 159.967 54.182Z" fill="#C7A008"/>
<path d="M101.678 38.499L110.919 25.513L110.544 25.167L101.628 37.691L101.678 38.499Z" fill="#C7A008"/>
<path d="M162.793 36.819L161.563 44.445L159.967 43.016L159.386 46.608L156.18 43.724L159.602 40.081L160.638 38.988L160.604 39.145L161.776 37.901L162.793 36.819Z" fill="#C7A008"/>
<path d="M151.374 15.429L154.61 14.041L148.695 6.45L146.757 9.157L151.374 15.429Z" fill="#C7A008"/>
<path d="M61.7849 34.235C46.8489 16.04 19.9359 25.82 10.2629 34.331L10.6409 34.984C12.8649 33.708 15.2099 32.554 17.6769 31.519C27.2849 27.415 36.4449 26.212 43.7889 27.497C46.3849 27.795 49.1349 28.565 51.5279 30.167C54.8409 32.022 57.3519 34.661 58.8199 38.043C61.4249 44.033 59.1299 51.998 52.9949 58.666C60.6899 51.605 65.9549 44.849 61.7849 34.235Z" fill="#C7A008"/>
<path d="M92.2571 55.433C92.1871 55.103 92.1171 54.768 92.0101 54.445C91.1691 51.42 89.3621 49.005 86.9931 47.398C83.1591 44.794 77.8071 44.259 72.4731 46.511C69.6671 47.724 67.2271 49.591 65.2981 51.821C66.7811 50.545 68.4761 49.482 70.3071 48.69C75.6291 46.431 80.9811 46.965 84.8281 49.566C87.1971 51.175 88.9891 53.589 89.8481 56.61C89.9431 56.934 90.0171 57.274 90.0911 57.615C90.3191 58.765 90.4251 59.928 90.3811 61.119C90.2701 64.601 88.9791 68.107 86.8321 71.101C86.4861 71.575 86.1221 72.017 85.7451 72.455C86.9671 71.4 88.0581 70.233 88.9901 68.926C91.1461 65.951 92.4341 62.438 92.5481 58.935C92.5961 57.766 92.4991 56.584 92.2571 55.433Z" fill="#C7A008"/>
<path d="M77.5501 50.992C77.5291 51.025 79.7171 48.824 79.6921 48.824C76.9551 48.72 75.7981 51.301 75.7031 51.504C76.2651 51.232 76.8851 51.055 77.5501 50.992Z" fill="#C7A008"/>
<path d="M82.7051 54.147C82.8161 54.518 82.8741 54.887 82.8741 55.291C82.8741 55.861 82.7471 56.408 82.5161 56.912C82.9541 56.683 86.1191 55.148 84.8921 51.896C84.9581 51.996 82.6261 54.137 82.7051 54.147Z" fill="#C7A008"/>
<path d="M70.255 55.957C70.255 54.619 72.546 51.373 73.26 50.29C69.642 52.59 68.084 55.694 68.084 58.139C68.084 62.328 71.765 65.697 76.166 65.697C78.248 65.697 82.061 64.596 84.555 60.56C83.248 61.42 79.926 63.478 78.183 63.478C73.783 63.477 70.255 60.169 70.255 55.957Z" fill="#C7A008"/>
<path d="M101.227 59.791L101.284 76.746L103.975 76.9L103.443 57.572L101.227 59.791Z" fill="#C7A008"/>
<path d="M85.781 27.511L85.836 29.017L98.589 25.22L99.534 41.46L101.662 38.478L101.208 22.181L85.781 27.511Z" fill="#C7A008"/>
<path d="M124.332 33.326L112.353 22.332L110.919 25.513L121.462 35.418L124.332 33.326Z" fill="#C7A008"/>
<path d="M122.511 53.814L108.447 49.164L106.398 51.328L120.409 56.935C121.998 59.929 124.406 62.494 127.438 64.369C130.373 66.164 133.727 67.239 137.279 67.58V74.5L139.451 75.584L140.138 65.188L122.511 53.814Z" fill="#C7A008"/>
<path d="M145.095 51.858C148.549 51.025 150.541 49.223 152.256 47.24C150.969 48.296 144.517 49.702 143.433 50.069L141.308 52.332C142.279 52.418 143.903 52.156 145.095 51.858Z" fill="#C7A008"/>
<path d="M138.813 27.943C132.444 28.777 129.125 34.124 128.576 34.775C130.928 32.788 133.876 31.313 137.196 30.527C145.077 28.621 152.026 31.024 156.321 36.334L158.979 34.084C154.725 28.866 146.692 26.043 138.813 27.943Z" fill="#C7A008"/>
<path d="M160.174 53.998C160.942 53.352 162.307 52.699 163.033 51.938L154.505 44.318C153.852 45.099 153.26 46.386 152.463 47.063L160.174 53.998Z" fill="#C7A008"/>
<path d="M203.938 74.418C194.991 67.064 195.526 51.295 199.918 46.292L195.976 21.577L187.354 22.69L186.97 24.867H193.494L196.949 47.291C192.553 52.31 190.429 59.034 191.898 65.19C193.035 69.947 195.957 73.797 200.163 76.024C200.586 76.256 201.023 76.458 201.47 76.649L201.526 76.978L204.091 77.383C204.091 77.382 204.358 74.632 203.938 74.418Z" fill="#C7A008"/>
<path d="M169.55 25.214L169.179 27.392H179.013L181.91 43.273L184.092 41.069L181.798 24.304L169.55 25.214Z" fill="#C7A008"/>
<path d="M186.385 56.044L183.21 64.246L183.996 66.38L188.537 53.889L186.385 56.044Z" fill="#C7A008"/>
<path d="M176.956 50.878L174.77 53.061L172.427 67.875L174.671 68.732L176.956 50.878Z" fill="#C7A008"/>
<path d="M221.123 46.146C222.41 47.065 223.508 48.228 224.334 49.611C224.986 50.672 225.479 51.86 225.794 53.164C226.865 57.617 225.584 62.433 222.753 66.297C222.468 66.689 222.154 67.068 221.854 67.44C223.004 66.451 236.972 56.148 223.325 42.616C208.315 37.668 202.633 47.461 202.102 48.082C203.688 46.734 205.518 45.619 207.5 44.861C212.58 42.937 217.578 43.604 221.123 46.146Z" fill="#C7A008"/>
<path d="M213.556 47.122C213.598 47.217 215.711 44.92 215.754 44.92C213.083 45.03 211.8 46.319 211.932 46.914C211.772 47.145 211.642 47.374 211.54 47.627C212.11 47.343 213.164 47.125 213.556 47.122Z" fill="#C7A008"/>
<path d="M218.578 50.479C218.674 50.837 218.72 51.212 218.712 51.615C218.688 52.131 218.554 52.604 218.358 53.045C218.764 52.862 222.001 51.857 220.765 48.295C220.797 48.396 218.543 50.481 218.578 50.479Z" fill="#C7A008"/>
<path d="M211.487 61.789C214.508 61.918 217.849 60.062 220.245 56.782C214.097 58.043 207.634 47.805 208.282 46.803C205.959 48.487 203.903 51.735 203.809 54.005C203.649 58.214 207.076 61.613 211.487 61.789Z" fill="#C7A008"/>
<path d="M245.178 88.464L246.619 89.428L264.207 36.643L251.044 33.601L250.879 36.693L261.497 39.049L245.178 88.464Z" fill="#C7A008"/>
<path d="M224.291 27.943L224.406 30.891L238.401 33.702L243.789 59.255L245.97 57.057L240.837 31.241L224.291 27.943Z" fill="#C7A008"/>
<path d="M235.061 57.062L231.208 78.854L233.427 79.573L237.252 54.916L235.061 57.062Z" fill="#C7A008"/>
<path d="M53.4449 86.85L46.8989 63.117L44.5029 64.793L50.5699 87.53L53.4449 86.85Z" fill="#C7A008"/>
<path d="M51.746 51.162C50.236 52.764 46.889 55.877 44.982 57.105L43.824 53.387L41.288 45.235L39.676 39.716L38.103 41.735L39.709 47.262L42.245 55.408L43.398 59.137C46.009 57.455 49.807 54.298 51.746 51.162Z" fill="#C7A008"/>
<path d="M144.498 37.129C142.432 36.334 139.506 36.573 137.926 38.302C137.559 38.703 136.845 39.726 136.619 40.183C138.148 38.967 140.871 38.704 142.656 39.348L144.498 37.129Z" fill="#7D7F68"/>
<path d="M49.8569 44.493C49.6249 43.273 48.4299 42.304 47.8439 42.035C46.7959 41.529 44.9829 41.45 43.6589 41.691C43.8969 42.513 44.1699 43.477 44.2859 43.872C44.8229 43.947 45.7049 44.107 46.1679 44.318C46.7489 44.598 47.7649 45.258 48.0009 46.486C48.3169 48.125 48.2339 49.657 47.5509 50.901C49.4239 49.063 50.3329 47.064 49.8569 44.493Z" fill="#7D7F68"/>
<path d="M53.137 44.459C52.238 39.635 45.93 36.976 39.676 40.387L41.288 45.908L43.824 54.067L44.981 57.783C49.673 54.766 54.389 51.141 53.137 44.459ZM46.925 51.877C46.242 49.648 44.744 44.835 44.744 44.835C44.751 44.857 44.449 43.805 44.091 42.601C45.417 42.364 46.691 42.46 47.739 42.964C48.325 43.243 49.355 43.894 49.58 45.128C50.098 47.902 49.163 49.882 46.925 51.877Z" fill="#3C5AA6"/>
<path d="M147.772 36.805C144.276 33.598 138.842 33.847 135.653 37.34C132.445 40.827 132.697 46.264 136.198 49.458C136.483 49.733 136.791 49.958 137.101 50.179L148.378 37.408C148.179 37.2 147.979 36.993 147.772 36.805ZM137.124 45.788C136.021 43.763 136.244 41.192 137.893 39.39C139.479 37.662 141.909 37.17 143.981 37.969L137.124 45.788Z" fill="#3567B0"/>
<path d="M162.84 35.403L156.595 41.42L162.528 46.748L162.84 35.403Z" fill="#1E2D5F"/>
<path d="M220.748 48.295C220.843 48.674 220.892 49.049 220.88 49.448C220.776 51.834 218.533 53.676 215.859 53.551C213.187 53.459 211.088 51.431 211.193 49.051C211.283 46.82 213.271 45.054 215.726 44.941C215.26 44.836 214.773 44.781 214.265 44.763C209.792 44.57 206.136 47.738 205.982 51.682C205.81 55.9 209.191 59.339 213.593 59.53C218.072 59.709 221.726 56.53 221.904 52.332C221.956 50.877 221.526 49.482 220.748 48.295Z" fill="#3466AF"/>
<path d="M85.0529 53.112C85.0529 55.508 82.8739 57.428 80.2049 57.428C77.5289 57.428 75.3579 55.507 75.3579 53.112C75.3579 50.879 77.2679 49.038 79.7159 48.824C79.2469 48.739 78.7589 48.69 78.2549 48.69C73.7829 48.69 70.2549 52.007 70.2549 55.957C70.2549 60.172 73.7839 63.478 78.1829 63.478C82.6589 63.478 86.1839 60.17 86.1839 55.957C86.1839 54.498 85.7019 53.123 84.8729 51.991C84.9849 52.332 85.0529 52.71 85.0529 53.112Z" fill="url(#paint7_linear_111_2)"/>
<path d="M248.569 28.912L246.583 37.097L244.749 28.034L220.19 22.628L220.362 36.284L224.063 37.114L223.796 39.577C223.748 39.558 223.718 39.529 223.692 39.508C219.104 37.087 213.416 36.839 208.063 38.861C206.267 39.548 204.6 40.451 203.088 41.549L199.383 18.161H183.05L182.6 20.85H165.409L163.446 32.873L162.02 31.112C157.854 25.994 151.815 23.175 145.125 23.035L159.721 15.19L149.543 0.00100708L131.154 21.19L134.328 25.06C131.453 26.235 128.941 27.855 126.86 29.812L111.093 15.823L105.58 26.389L105.792 16.235L81.1411 24.11L81.7731 37.354L85.9671 36.266L86.5871 42.978C81.7951 40.826 76.0351 40.879 70.6931 43.136C69.1101 43.826 67.6341 44.674 66.2741 45.66C67.1981 41.571 66.9791 37.54 65.4211 33.945C63.5811 29.697 60.3431 26.186 56.3731 23.971C53.5901 22.117 50.2731 20.962 46.8021 20.569C38.2721 19.078 28.0291 20.609 17.9481 24.904C14.2421 26.485 10.7851 28.279 7.66707 30.265L3.72607 32.764L6.10607 36.783L13.4921 49.266C13.4921 49.266 15.7521 53.091 15.7671 53.089L19.7611 51.126L20.3181 50.87L38.6711 91.831L40.4411 95.768L44.5391 94.448L54.4691 91.267L58.8211 89.884L57.6731 85.454L52.3991 65.209C53.9161 64.086 55.3321 62.895 56.6391 61.648C56.3441 64.067 56.4991 66.516 57.1651 68.86C58.5441 73.768 61.7581 77.645 66.2181 79.793C71.0351 82.108 76.9121 82.114 82.3491 79.808C85.0761 78.651 87.5011 76.963 89.5561 74.954L90.3051 83.017L107.695 80.456L107.668 64.863L144.005 82.822V65.433C145.463 65.311 146.951 65.081 148.447 64.714C152.449 63.747 155.874 62.421 158.917 60.598L157.391 69.937L176.983 73.02L178.058 65.97L183.175 75.423L186.303 69.396L187.446 79.292L209.659 83.208L208.481 75.735C211.522 76.079 214.727 75.671 217.823 74.503C218.556 74.232 219.28 73.902 219.973 73.548L219.088 81.499L233.872 83.585L233.982 89.648L249.398 94.487L269.469 33.992L248.569 28.912ZM161.776 37.902L162.795 36.819L161.564 44.446L158.353 41.554L161.776 37.902ZM148.758 6.74601L154.14 14.057L138.753 21.685L137.69 20.07L148.758 6.74601ZM46.8691 63.123L53.0081 86.678L43.0721 89.852L22.6831 44.318C21.5741 44.901 19.5261 45.879 17.6451 46.801L10.2621 34.329C13.1981 32.454 16.4181 30.792 19.8431 29.345C29.4551 25.257 38.6261 24.037 45.9611 25.333C48.5561 25.625 51.3031 26.39 53.7091 27.987C57.0101 29.846 59.5351 32.492 60.9911 35.862C64.5421 44.068 58.6101 55.877 46.8691 63.123ZM92.5501 58.931C92.4361 62.438 91.1481 65.952 88.9921 68.925C86.9411 71.8 84.0761 74.173 80.7051 75.624C72.0851 79.276 63.4651 75.624 61.1621 67.44C58.9311 59.527 64.1221 50.107 72.4741 46.509C77.8081 44.257 83.1601 44.791 86.9941 47.396C89.3621 49.002 91.1681 51.417 92.0111 54.443C92.1171 54.764 92.1871 55.101 92.2581 55.431C92.4991 56.584 92.5961 57.766 92.5501 58.931ZM139.451 75.584L103.396 57.551L103.46 76.445L94.1331 77.717L93.4831 69.929C96.3631 64.991 97.4161 59.172 95.9131 53.836C95.0881 50.903 93.5641 48.357 91.4931 46.317L90.1551 30.438L85.9671 31.524L85.7821 27.509L100.76 23.049L101.678 38.497L112.712 22.994L123.499 33.267L108.414 49.159L122.586 54.765C124.169 57.765 126.584 60.314 129.614 62.192C132.543 64 135.899 65.069 139.449 65.42L139.451 75.584ZM120.73 49.458L115.715 47.523L120.39 42.979C120.19 45.065 120.293 47.246 120.73 49.458ZM159.967 54.182C156.507 57.044 152.563 58.91 147.352 60.169C146.213 60.43 145.097 60.62 144.005 60.716C135.734 61.529 128.795 57.731 126.162 51.571C125.834 50.825 125.581 50.07 125.39 49.264C124.172 44.076 125.212 39.439 127.775 35.806C128.513 34.746 129.389 33.78 130.373 32.91C132.787 30.756 135.869 29.19 139.373 28.348C147.252 26.448 154.191 28.853 158.445 34.073L143.431 50.054C144.449 50.246 146.068 49.979 147.263 49.693C150.839 48.821 152.84 46.923 154.603 44.855L160.603 50.253L162.421 51.895C161.633 52.71 160.805 53.479 159.967 54.182ZM191.82 75.509L188.554 53.874L183.935 65.809L177.019 50.892H176.941L174.208 68.167L162.681 66.161L164.302 56.521C164.737 56.112 165.165 55.702 165.586 55.269L169.322 51.422L165.691 48.17L169.549 25.213H181.179L184.09 41.105L187.352 22.688H195.671L199.123 45.126C194.73 50.13 192.596 56.857 194.064 63.011C195.199 67.782 198.131 71.624 202.334 73.868C202.757 74.081 203.195 74.292 203.647 74.474L204.087 77.383L191.82 75.509ZM220.545 68.46C219.274 69.365 217.875 70.134 216.371 70.689C213.402 71.82 210.449 72.055 207.818 71.532C205.984 71.17 204.312 70.455 202.857 69.42C200.543 67.746 198.839 65.274 198.088 62.17C197.212 58.441 198.019 54.459 200.025 50.971C201.025 49.266 202.308 47.664 203.826 46.283C205.519 44.765 207.482 43.522 209.666 42.682C214.749 40.786 219.762 41.44 223.291 43.977C224.589 44.897 225.666 46.068 226.515 47.429C227.159 48.504 227.659 49.689 227.962 50.983C229.043 55.461 227.756 60.257 224.931 64.121C223.721 65.768 222.246 67.248 220.545 68.46ZM246.5 88.852L237.976 86.313L237.233 54.887L232.946 79.13L223.647 77.646L224.313 70.666C230.385 65.535 233.604 57.441 231.84 50.106C231.065 46.858 229.395 44.03 227.041 41.88L227.826 33.648L224.31 32.712L224.545 28.317L240.566 31.537L245.953 57.083L251.478 34.18L263.666 36.873L246.5 88.852Z" fill="url(#paint8_linear_111_2)"/>
<path d="M253.505 91.8304V89.4579H252.618V89.1405H254.75V89.4579H253.861V91.8304H253.505Z" fill="black"/>
<path d="M255.106 91.8304V89.1405H255.642L256.279 91.045C256.338 91.2224 256.38 91.3551 256.407 91.4432C256.438 91.3453 256.486 91.2016 256.55 91.012L257.194 89.1405H257.673V91.8304H257.33V89.579L256.549 91.8304H256.228L255.45 89.5405V91.8304H255.106Z" fill="black"/>
<path d="M102.88 121.548L99 106.232L118.833 102.829C121.42 114.599 123.21 143.335 133.923 140.693C140.822 138.991 138.953 120.272 136.51 100.702L149.014 99C150.882 118.995 161.923 159.984 136.51 162.815C109.779 165.793 110.785 132.042 109.348 116.443L102.88 121.548Z" fill="#FFCB05" stroke="#1A3A70" stroke-width="5"/>
<path d="M104.88 118.9L101 103.345L120.833 99.8887C123.42 111.843 125.21 141.028 135.923 138.344C142.822 136.616 140.953 117.604 138.51 97.7283L151.014 96C152.882 116.308 163.923 157.937 138.51 160.812C111.779 163.837 112.785 129.558 111.348 113.715L104.88 118.9Z" fill="#FFCB05" stroke="#2F6EB5" stroke-width="5"/>
<path d="M148 126L153.5 120.5L164 116L168.5 153L153.5 154V126H148Z" stroke="black" stroke-opacity="0.29" stroke-width="4"/>
<path d="M150 123L155.5 117.5L166 113L170.5 150L155.5 151V123H150Z" fill="#FFCB05" stroke="#2E6FB6" stroke-width="4"/>
<circle cx="160" cy="109" r="4.5" fill="#1A3A70" stroke="#1A3A70" stroke-width="3"/>
<circle cx="161" cy="108" r="4.5" fill="#FFCB05" stroke="#2E6FB6" stroke-width="3"/>
</g>
<defs>
<linearGradient id="paint0_linear_111_2" x1="13.3" y1="53.524" x2="3.2827" y2="34.8553" gradientUnits="userSpaceOnUse">
<stop stop-color="#0070B6"/>
<stop offset="1" stop-color="#1D2C5E"/>
</linearGradient>
<linearGradient id="paint1_linear_111_2" x1="135.476" y1="15.3872" x2="148.191" y2="1.76322" gradientUnits="userSpaceOnUse">
<stop stop-color="#0070B6"/>
<stop offset="1" stop-color="#1D2C5E"/>
</linearGradient>
<linearGradient id="paint2_linear_111_2" x1="80.002" y1="38.1001" x2="78.4857" y2="25.3617" gradientUnits="userSpaceOnUse">
<stop stop-color="#0070B6"/>
<stop offset="1" stop-color="#1D2C5E"/>
</linearGradient>
<linearGradient id="paint3_linear_111_2" x1="218.897" y1="35.648" x2="218.291" y2="24.15" gradientUnits="userSpaceOnUse">
<stop stop-color="#125D9E"/>
<stop offset="1" stop-color="#1D2C5E"/>
</linearGradient>
<linearGradient id="paint4_linear_111_2" x1="176.46" y1="19.0747" x2="163.117" y2="40.3027" gradientUnits="userSpaceOnUse">
<stop stop-color="#125D9E"/>
<stop offset="1" stop-color="#1D2C5E"/>
</linearGradient>
<linearGradient id="paint5_linear_111_2" x1="58.3703" y1="53.1236" x2="67.4684" y2="71.0165" gradientUnits="userSpaceOnUse">
<stop stop-color="#105FA1"/>
<stop offset="1" stop-color="#1D2C5E"/>
</linearGradient>
<linearGradient id="paint6_linear_111_2" x1="24.0411" y1="47.0161" x2="34.5706" y2="71.4255" gradientUnits="userSpaceOnUse">
<stop stop-color="#105FA1"/>
<stop offset="1" stop-color="#1D2C5E"/>
</linearGradient>
<linearGradient id="paint7_linear_111_2" x1="70.255" y1="56.0835" x2="86.1837" y2="56.0835" gradientUnits="userSpaceOnUse">
<stop stop-color="#3C5AA6"/>
<stop offset="0.9331" stop-color="#2B73B9"/>
<stop offset="1" stop-color="#2A75BB"/>
</linearGradient>
<linearGradient id="paint8_linear_111_2" x1="3.72674" y1="47.8843" x2="269.47" y2="47.8843" gradientUnits="userSpaceOnUse">
<stop stop-color="#3C5AA6"/>
<stop offset="0.9331" stop-color="#2B73B9"/>
<stop offset="1" stop-color="#2A75BB"/>
</linearGradient>
<clipPath id="clip0_111_2">
<rect width="269" height="167" fill="white"/>
</clipPath>
</defs>
</svg>
